<svg xmlns="http://www.w3.org/2000/svg" viewBox="0 0 96 96" role="img" aria-labelledby="title desc">
  <title id="title">VishAI logo</title>
  <desc id="desc">A teal chat mark with a V shaped spark for VishAI.</desc>
  <defs>
    <linearGradient id="vishaiGradient" x1="16" y1="14" x2="82" y2="84" gradientUnits="userSpaceOnUse">
      <stop offset="0" stop-color="#1098d5"/>
      <stop offset="0.55" stop-color="#16b9c4"/>
      <stop offset="1" stop-color="#18c79f"/>
    </linearGradient>
  </defs>
  <rect width="96" height="96" rx="24" fill="#f7fffd"/>
  <path
    d="M22 24h52c8.8 0 16 7.1 16 15.9v22.2C90 70.9 82.8 78 74 78H48.5L31.4 89c-2.5 1.6-5.8-.2-5.8-3.2V76.5C14.5 73.9 6 64 6 52.2V39.9C6 31.1 13.2 24 22 24Z"
    fill="url(#vishaiGradient)"
  />
  <path
    d="M27.8 38.5c2.4-1.2 5.2-.2 6.4 2.1L45 61.9l17.3-32.4c1.3-2.4 4.2-3.2 6.5-1.9 2.3 1.2 3.2 4.1 1.9 6.5L49.4 73.7c-.9 1.6-2.6 2.6-4.5 2.5-1.8-.1-3.5-1.1-4.3-2.8L25.7 44.9c-1.2-2.4-.3-5.2 2.1-6.4Z"
    fill="#ffffff"
  />
  <path
    d="M69.8 45.1l2.2-5.1 2.2 5.1 5.1 2.2-5.1 2.2-2.2 5.1-2.2-5.1-5.1-2.2 5.1-2.2Z"
    fill="#d8fff6"
  />
  <circle cx="29" cy="54" r="4" fill="#d8fff6" opacity="0.9"/>
  <circle cx="67" cy="62" r="3" fill="#d8fff6" opacity="0.85"/>
</svg>
